<?xml version="1.0" standalone="no"?>
<!DOCTYPE svg PUBLIC "-//W3C//DTD SVG 20010904//EN"
 "http://www.w3.org/TR/2001/REC-SVG-20010904/DTD/svg10.dtd">
<svg version="1.0" xmlns="http://www.w3.org/2000/svg"
 width="1120.000000pt" height="1120.000000pt" viewBox="0 0 1120.000000 1120.000000"
 preserveAspectRatio="xMidYMid meet">

<g transform="translate(0.000000,1120.000000) scale(0.100000,-0.100000)"
fill="#000000" stroke="none">
<path d="M0 11160 c0 -29 4 -40 15 -40 8 0 15 4 15 10 0 5 19 23 42 40 l41 30
-56 0 -57 0 0 -40z"/>
<path d="M320 11190 c0 -5 7 -10 15 -10 8 0 15 5 15 10 0 6 -7 10 -15 10 -8 0
-15 -4 -15 -10z"/>
<path d="M11015 11190 c3 -5 25 -10 49 -10 23 0 61 -9 84 -20 52 -25 52 -26
52 10 l0 30 -96 0 c-61 0 -93 -4 -89 -10z"/>
<path d="M5545 7692 c-80 -52 -203 -130 -260 -165 -11 -6 -33 -21 -50 -32 -16
-11 -38 -24 -47 -30 -25 -14 -386 -242 -641 -405 -117 -75 -233 -148 -260
-163 l-47 -28 2 -542 3 -542 522 -3 522 -2 7 -34 c6 -36 39 -75 52 -62 4 4 6
60 5 124 0 65 -2 293 -3 507 l-2 390 54 36 c29 20 90 60 136 89 56 36 81 58
77 67 -3 8 -5 21 -5 29 0 19 -23 7 -195 -99 -179 -110 -190 -117 -272 -171
l-73 -47 0 -378 0 -378 -212 -7 c-117 -4 -288 -6 -380 -5 l-168 2 -2 484 c-2
266 -1 490 2 498 5 13 847 550 1009 643 l73 42 59 -37 c32 -21 127 -84 211
-140 559 -375 661 -440 684 -435 33 6 30 25 -11 61 -20 17 -223 155 -453 308
-229 152 -421 279 -425 283 -8 7 64 55 154 104 l46 25 244 -162 c134 -89 252
-166 262 -172 129 -75 394 -271 402 -296 5 -14 14 -19 31 -17 14 2 24 6 24 11
0 4 0 108 0 232 l0 225 -30 0 -30 0 0 -165 c0 -91 -3 -165 -6 -165 -4 0 -171
110 -373 244 -466 310 -508 336 -529 336 -9 0 -57 -26 -107 -58z m-236 -1059
c-4 -27 -8 -213 -8 -415 l-1 -368 -85 0 -85 0 0 358 c0 329 1 360 18 374 20
17 154 98 163 98 3 0 2 -21 -2 -47z"/>
<path d="M5490 7400 c0 -5 5 -10 11 -10 5 0 7 5 4 10 -3 6 -8 10 -11 10 -2 0
-4 -4 -4 -10z"/>
<path d="M5530 7376 c7 -7 13 -7 20 0 6 6 3 10 -10 10 -13 0 -16 -4 -10 -10z"/>
<path d="M5774 7216 c11 -9 24 -16 30 -16 12 0 7 5 -24 19 -24 11 -24 11 -6
-3z"/>
<path d="M6280 7220 c8 -5 20 -10 25 -10 6 0 3 5 -5 10 -8 5 -19 10 -25 10 -5
0 -3 -5 5 -10z"/>
<path d="M5792 6308 l3 -523 153 -3 152 -3 0 420 0 420 -22 16 c-13 9 -79 56
-148 106 -69 49 -128 89 -133 89 -4 0 -6 -235 -5 -522z m221 294 c16 -14 17
-45 17 -384 l0 -368 -84 0 c-47 0 -86 4 -88 10 -1 5 -2 199 0 430 l2 421 68
-47 c37 -26 75 -54 85 -62z"/>
<path d="M6288 6689 c-16 -9 -18 -28 -20 -147 -1 -123 -2 -129 -9 -62 -3 41
-4 23 -1 -40 4 -63 5 -233 3 -377 -2 -245 -1 -262 16 -270 10 -4 146 -6 303
-3 l285 6 -277 2 -278 2 -2 449 c-3 425 -4 449 -20 440z"/>
<path d="M4237 5264 c-15 -30 -32 -52 -37 -49 -6 4 -7 11 -4 17 4 6 1 9 -6 6
-13 -4 -42 -54 -76 -133 -21 -48 -39 -89 -146 -334 -33 -75 -46 -117 -40 -123
6 -6 34 -11 62 -12 l53 -1 51 100 51 100 53 3 c35 2 59 -2 74 -12 12 -9 29
-16 38 -16 8 -1 29 -19 45 -40 33 -42 61 -53 52 -20 -3 11 -1 18 4 14 5 -3 9
-16 9 -30 0 -13 4 -24 9 -24 8 0 22 -32 25 -55 1 -5 6 -13 11 -17 12 -9 79
-11 87 -3 3 3 -36 103 -87 223 -50 119 -113 272 -139 340 -26 67 -51 122 -55
122 -4 0 -19 -25 -34 -56z m23 -240 c0 -11 3 -24 7 -28 11 -11 11 -71 -1 -78
-20 -14 -86 -9 -86 6 0 7 14 44 31 81 23 51 33 65 40 54 5 -8 9 -23 9 -35z"/>
<path d="M6346 5279 c-5 -33 -10 -40 -23 -35 -9 4 -20 1 -24 -5 -8 -14 -2
-448 8 -519 6 -45 6 -45 15 -15 4 17 7 53 6 80 -2 28 2 52 7 55 6 3 12 -35 15
-100 l5 -105 30 0 30 0 5 220 c4 121 7 222 8 224 1 2 19 -21 40 -52 20 -30 82
-102 137 -160 55 -57 112 -119 128 -137 42 -50 117 -104 117 -85 0 13 5 12 29
-6 16 -12 33 -19 38 -16 4 3 7 159 5 347 l-3 341 -32 -3 -32 -3 -5 -251 -5
-251 -155 170 c-225 246 -321 347 -330 347 -4 0 -10 -18 -14 -41z"/>
<path d="M7732 5263 c-23 -41 -32 -52 -32 -35 0 12 -5 22 -11 22 -6 0 -8 -9
-4 -22 5 -17 4 -19 -3 -9 -11 16 -40 -34 -87 -154 -16 -38 -43 -101 -62 -140
-79 -161 -115 -285 -83 -285 6 0 10 5 10 12 0 6 6 4 13 -6 15 -21 66 -19 79 4
4 8 26 54 48 103 l39 87 71 0 c39 0 69 -4 66 -9 -3 -5 5 -12 18 -15 14 -3 30
-19 38 -36 7 -16 17 -30 21 -30 5 0 6 -4 2 -9 -7 -13 47 -100 63 -101 6 0 12
8 12 17 0 14 3 13 16 -5 15 -22 57 -30 80 -14 8 5 -24 94 -100 282 -62 151
-121 300 -131 330 -11 30 -22 59 -25 63 -4 4 -21 -18 -38 -50z m17 -210 c0
-16 3 -54 5 -85 l5 -58 -40 0 c-28 0 -39 4 -39 15 0 15 60 155 66 155 2 0 3
-12 3 -27z m164 -313 c3 -11 2 -20 -3 -20 -4 0 -10 11 -12 25 -6 29 7 25 15
-5z"/>
<path d="M3176 5258 c-3 -29 -8 -69 -9 -88 -3 -23 -5 -14 -7 25 -2 50 -4 55
-10 30 l-8 -30 -1 30 c-1 23 -3 27 -11 15 -13 -20 -13 -531 0 -565 12 -31 49
-47 90 -39 l30 7 0 121 c0 69 5 127 11 136 9 13 10 13 6 0 -5 -15 22 -66 58
-109 56 -69 111 -122 138 -136 36 -18 61 -20 51 -3 -4 6 3 4 17 -5 25 -18 94
-23 103 -8 3 5 -66 84 -154 176 -88 92 -160 173 -160 180 0 7 69 80 153 164
l152 151 -50 0 c-48 0 -53 -3 -110 -59 -33 -33 -63 -57 -67 -54 -5 2 -8 -1 -8
-8 0 -7 -3 -10 -6 -6 -3 3 -27 -20 -53 -51 -84 -101 -81 -103 -81 47 l0 131
-34 0 c-34 0 -35 0 -40 -52z"/>
<path d="M4926 5295 c-3 -9 -6 -56 -7 -103 0 -48 -4 -96 -8 -107 -8 -19 -11
-4 -25 118 -1 15 -6 30 -9 34 -4 3 -7 -120 -7 -275 0 -154 4 -283 9 -286 12
-8 21 95 21 232 0 76 3 113 10 106 5 -5 11 -91 12 -194 l3 -185 31 -3 c30 -3
31 -1 38 44 3 26 6 97 7 158 0 87 3 106 11 89 6 -13 14 -23 17 -23 4 0 7 -9 8
-20 2 -29 110 -186 144 -211 16 -11 29 -17 29 -13 0 3 7 1 15 -6 20 -16 19 -1
-1 30 -10 15 -2 10 20 -12 30 -31 44 -38 76 -38 21 0 41 4 44 9 3 5 -51 78
-119 162 -69 84 -125 156 -125 159 0 3 16 14 36 25 20 11 48 35 63 54 37 49
37 141 1 194 -37 55 -79 71 -191 75 -83 3 -97 1 -103 -13z m120 -77 c52 -42
72 -72 76 -113 4 -53 -10 -67 -73 -73 l-49 -5 0 102 c0 84 3 101 15 101 9 0
23 -6 31 -12z"/>
<path d="M5810 4975 l0 -335 40 0 40 0 0 253 c0 138 -3 289 -7 335 l-6 82 -33
0 -34 0 0 -335z"/>
<path d="M5751 4983 c1 -215 8 -338 19 -313 1 3 4 132 6 288 4 246 2 282 -11
282 -13 0 -15 -34 -14 -257z"/>
<path d="M6791 5085 c-1 -66 -4 -130 -7 -143 -3 -15 0 -21 7 -16 8 4 8 1 1
-12 -8 -15 -6 -25 8 -42 18 -22 18 -18 19 134 1 98 -2 153 -8 150 -5 -4 -12 6
-14 21 -2 16 -5 -26 -6 -92z"/>
<path d="M11076 4879 c-112 -29 -208 -60 -261 -84 -46 -21 -139 -51 -250 -81
-161 -43 -415 -128 -521 -175 -136 -59 -331 -189 -516 -344 -9 -8 -43 -35 -74
-60 -126 -103 -275 -265 -383 -415 -89 -124 -81 -112 -172 -265 -39 -66 -79
-131 -88 -145 -10 -14 -51 -83 -91 -155 -41 -71 -87 -146 -102 -166 -15 -20
-28 -39 -28 -42 0 -2 -17 -23 -39 -45 -21 -22 -43 -46 -47 -54 -5 -7 -31 -28
-59 -46 -27 -18 -63 -46 -80 -62 l-29 -31 2 -199 c2 -109 7 -225 12 -257 9
-55 46 -162 60 -173 4 -3 9 -12 12 -20 3 -8 40 -60 83 -114 100 -128 130 -187
227 -456 35 -99 79 -180 124 -233 24 -29 54 -64 66 -80 29 -35 111 -95 156
-114 19 -8 41 -21 49 -29 18 -17 45 -18 61 -2 9 9 12 7 12 -10 0 -26 8 -28 25
-5 9 12 29 16 74 17 45 1 61 4 61 15 0 11 12 12 58 7 31 -3 86 -9 122 -12 36
-3 79 -12 95 -19 17 -7 51 -21 78 -30 46 -16 63 -35 31 -35 -12 0 -8 -10 16
-40 17 -22 28 -40 24 -40 -6 0 11 -17 73 -70 7 -5 15 -10 19 -10 4 0 39 -14
78 -31 39 -17 85 -37 101 -44 37 -16 211 -61 285 -75 174 -31 732 -45 818 -21
l42 12 0 2134 c0 1174 -3 2135 -7 2134 -5 0 -57 -14 -117 -30z"/>
<path d="M4390 4709 c0 -5 5 -7 10 -4 6 3 10 8 10 11 0 2 -4 4 -10 4 -5 0 -10
-5 -10 -11z"/>
<path d="M4222 4432 c-40 -34 -43 -55 -4 -46 33 8 77 48 68 63 -11 17 -28 13
-64 -17z"/>
<path d="M6173 4430 c-39 -35 -42 -50 -10 -50 24 0 77 47 77 68 0 21 -34 12
-67 -18z"/>
<path d="M3216 4334 c-3 -9 -6 -36 -6 -61 0 -49 -12 -53 -14 -6 -1 17 -7 29
-18 31 -14 3 -17 -11 -20 -110 -4 -118 1 -159 18 -165 6 -2 16 7 22 19 7 13
11 16 11 8 -2 -30 1 -38 20 -43 31 -8 40 6 43 68 l3 60 45 5 c53 7 84 25 99
57 29 64 -4 127 -74 143 -64 15 -122 12 -129 -6z m139 -56 c7 -7 6 -12 -1 -15
-6 -2 -20 -10 -30 -18 -17 -13 -18 -14 -1 -15 9 0 17 5 17 10 0 6 7 10 16 10
14 0 15 -2 3 -17 -10 -11 -10 -14 -1 -9 17 10 15 1 -4 -18 -8 -9 -28 -16 -44
-16 -27 0 -28 3 -32 51 -1 28 -1 53 2 55 7 7 64 -7 75 -18z m-148 -110 c-2
-13 -4 -5 -4 17 -1 22 1 32 4 23 2 -10 2 -28 0 -40z m0 -90 c-3 -7 -5 -2 -5
12 0 14 2 19 5 13 2 -7 2 -19 0 -25z"/>
<path d="M3569 4343 c-22 -5 -33 -127 -23 -247 l7 -86 28 0 29 0 0 153 c0 158
-7 188 -41 180z"/>
<path d="M3783 4332 c-4 -9 -7 -87 -8 -172 l0 -155 99 1 c72 1 100 5 107 15
14 23 10 29 -20 29 -15 0 -49 3 -74 6 l-46 7 -3 140 c-3 137 -3 140 -26 144
-15 2 -25 -3 -29 -15z"/>
<path d="M4181 4286 c-17 -36 -41 -91 -53 -123 -11 -32 -26 -74 -34 -93 -20
-53 -18 -70 10 -70 28 0 37 10 51 60 10 34 13 35 63 38 28 2 60 -2 69 -7 10
-6 12 -11 6 -11 -16 0 -17 -34 -2 -58 8 -13 21 -16 55 -13 24 1 44 6 44 10 0
11 -130 304 -141 318 -21 25 -36 13 -68 -51z m63 -73 c4 -16 9 -36 12 -45 4
-15 -1 -18 -33 -17 -21 0 -33 3 -26 5 7 3 9 12 6 21 -4 11 -3 14 6 9 8 -5 12
-3 10 5 -6 50 14 68 25 22z"/>
<path d="M4554 4343 c-19 -4 -23 -14 -30 -81 l-8 -77 -7 53 c-4 29 -10 56 -13
59 -14 14 -26 -58 -26 -161 l0 -113 40 -12 c62 -18 80 -4 80 64 0 30 4 55 8
55 4 0 27 -27 50 -60 40 -56 45 -60 82 -60 47 0 49 8 14 41 -14 13 -35 39 -46
57 l-21 34 31 28 c17 15 34 39 37 53 8 31 -12 74 -45 98 -25 18 -108 30 -146
22z m106 -63 c41 -41 17 -90 -44 -90 -24 0 -26 3 -26 48 0 27 3 52 7 55 13 13
43 7 63 -13z m-143 -217 c-3 -10 -5 -4 -5 12 0 17 2 24 5 18 2 -7 2 -21 0 -30z
m-7 -23 c8 -5 11 -12 8 -16 -4 -3 -14 1 -23 10 -18 17 -9 21 15 6z"/>
<path d="M4919 4343 c-23 -6 -29 -46 -29 -200 0 -111 3 -135 15 -139 9 -4 55
-2 103 2 80 8 87 11 90 32 3 21 0 22 -72 22 l-76 0 0 45 0 45 49 0 c62 0 81 7
81 31 0 15 -9 18 -62 21 l-63 3 2 39 c2 22 5 42 8 45 3 3 35 7 70 9 54 4 65 7
65 22 0 10 -7 21 -16 24 -17 7 -140 6 -165 -1z"/>
<path d="M5268 4335 c-34 -19 -48 -44 -48 -88 0 -39 23 -64 88 -96 24 -12 45
-28 48 -36 6 -15 -12 -55 -25 -55 -11 0 -8 43 4 53 6 5 0 5 -13 2 -18 -5 -31
2 -62 33 -22 21 -44 51 -49 66 -12 29 -23 33 -41 12 -9 -12 -8 -22 5 -50 10
-20 21 -36 25 -36 4 0 19 -11 34 -25 l28 -26 -26 -20 c-34 -27 -33 -37 9 -55
46 -19 71 -18 122 7 32 16 45 29 51 52 16 60 -5 96 -78 134 -30 15 -56 36 -58
46 -8 40 43 61 88 37 15 -8 21 -6 31 11 15 29 0 41 -58 46 -31 2 -58 -2 -75
-12z m27 -273 c-3 -3 -11 0 -18 7 -9 10 -8 11 6 5 10 -3 15 -9 12 -12z"/>
<path d="M5735 4317 c-19 -19 -35 -44 -35 -56 0 -23 -15 -29 -23 -8 -9 24 -19
-23 -13 -58 5 -26 18 -44 48 -65 23 -17 49 -30 59 -30 12 0 16 -6 12 -20 -3
-11 -10 -20 -15 -20 -5 0 -7 3 -5 8 3 4 -8 8 -24 9 -38 3 -69 -35 -43 -54 26
-19 91 -26 128 -13 42 14 86 62 86 95 0 33 -35 71 -95 103 -54 29 -68 59 -40
82 13 11 25 11 56 3 32 -8 41 -7 54 7 14 15 14 18 0 30 -9 7 -38 15 -65 18
-46 4 -52 2 -85 -31z m45 -163 c34 -15 53 -34 35 -34 -36 0 -125 73 -125 102
0 5 11 -4 25 -21 14 -16 44 -38 65 -47z"/>
<path d="M6070 4301 c-53 -53 -67 -92 -57 -161 7 -53 38 -94 92 -120 41 -20
51 -21 92 -10 63 15 97 42 122 93 45 94 12 184 -84 228 -22 10 -57 19 -78 19
-32 0 -45 -7 -87 -49z m163 -34 c30 -24 45 -83 33 -130 -10 -39 -54 -77 -92
-77 -90 0 -132 135 -64 208 28 30 86 29 123 -1z"/>
<path d="M6193 4262 c10 -10 14 -22 10 -25 -3 -4 1 -7 10 -7 22 0 22 19 0 36
-26 20 -39 17 -20 -4z"/>
<path d="M6483 4342 c-6 -4 -16 -23 -21 -42 -6 -19 -11 -27 -11 -17 -1 9 -7
17 -15 17 -22 0 -36 -223 -15 -261 9 -17 13 -18 27 -7 13 11 14 11 8 -1 -13
-21 13 -31 84 -30 88 2 124 11 128 32 3 15 -5 17 -55 17 -32 0 -63 4 -70 8 -9
5 -13 51 -15 147 -3 115 -6 140 -18 142 -8 2 -20 0 -27 -5z m-26 -169 c-3 -10
-5 -4 -5 12 0 17 2 24 5 18 2 -7 2 -21 0 -30z"/>
<path d="M7474 4331 c-85 -39 -123 -130 -90 -216 44 -114 177 -150 270 -73
108 88 82 244 -49 295 -44 17 -85 15 -131 -6z m101 -41 c17 -7 17 -9 3 -9 -26
-1 -22 -18 13 -62 18 -23 29 -46 25 -55 -4 -10 -2 -13 6 -8 8 5 9 0 5 -17 -6
-23 -5 -23 8 -5 8 11 15 31 14 45 0 24 -1 24 -9 6 -7 -16 -9 -12 -9 18 -1 30
-6 40 -26 49 -18 8 -22 14 -13 19 17 11 55 -27 63 -62 10 -43 -2 -81 -35 -117
-24 -26 -36 -32 -70 -32 -35 0 -48 6 -77 35 -34 34 -35 38 -31 92 4 48 10 61
37 85 32 28 60 34 96 18z m42 -72 c-3 -8 -6 -5 -6 6 -1 11 2 17 5 13 3 -3 4
-12 1 -19z"/>
<path d="M7885 4341 c-26 -11 -51 -40 -59 -68 -4 -13 -12 -23 -17 -23 -5 0 -9
-6 -9 -14 0 -8 -5 -16 -11 -18 -27 -9 36 -90 88 -115 20 -9 30 -20 26 -27 -4
-6 1 -5 11 3 16 14 15 16 -18 33 -32 16 -66 61 -66 87 0 5 24 -6 53 -24 97
-64 93 -59 79 -90 -11 -23 -17 -26 -45 -23 -17 3 -40 8 -49 12 -13 6 -21 1
-29 -18 -15 -32 -11 -37 40 -46 79 -14 151 31 151 95 0 42 -25 72 -86 105 -51
27 -64 50 -43 77 10 11 25 14 56 10 36 -4 45 -1 54 14 8 16 5 21 -16 29 -31
12 -82 12 -110 1z"/>
<path d="M6780 4185 c0 -85 -1 -158 -2 -162 -2 -5 12 -9 30 -11 l32 -3 0 165
0 166 -30 0 -30 0 0 -155z"/>
<path d="M6984 4303 c-4 -23 -9 -31 -11 -20 -5 19 -32 23 -34 5 -3 -31 3 -263
8 -268 7 -8 23 24 18 38 -2 6 0 12 5 12 5 0 10 -15 12 -32 l3 -33 70 1 c124 2
204 65 213 167 3 43 -1 58 -20 87 -43 63 -80 80 -173 80 l-83 0 -8 -37z m161
-27 c19 -8 35 -20 35 -27 0 -8 -6 -6 -18 4 -24 22 -34 22 -23 0 5 -10 14 -30
22 -45 15 -34 26 -36 32 -5 3 13 5 8 6 -16 2 -74 -49 -127 -124 -127 l-37 0 3
115 4 115 33 0 c18 0 48 -7 67 -14z m-168 -178 c-2 -13 -4 -3 -4 22 0 25 2 35
4 23 2 -13 2 -33 0 -45z"/>
<path d="M7111 4254 c0 -11 3 -14 6 -6 3 7 2 16 -1 19 -3 4 -6 -2 -5 -13z"/>
<path d="M3730 4279 c-12 -22 -10 -252 2 -264 21 -21 28 16 28 146 0 137 -7
163 -30 118z"/>
<path d="M4846 4283 c-8 -29 -10 -216 -2 -240 4 -13 14 -23 22 -23 11 0 14 25
14 140 0 115 -3 140 -14 140 -8 0 -17 -8 -20 -17z"/>
<path d="M6728 4270 c-11 -29 -10 -200 1 -200 6 0 11 -5 11 -11 0 -5 -4 -8 -9
-5 -5 3 -12 -1 -15 -10 -4 -9 -2 -13 5 -8 6 4 15 0 20 -7 15 -24 15 171 0 228
-5 19 -9 23 -13 13z"/>
<path d="M3507 4233 c-10 -56 -8 -173 2 -173 18 0 29 172 12 198 -5 9 -10 1
-14 -25z"/>
<path d="M4124 4244 c-4 -10 -13 -26 -19 -34 -13 -16 -65 -166 -65 -188 0 -27
18 -9 35 36 10 26 21 52 25 57 13 17 43 135 37 142 -4 3 -10 -3 -13 -13z"/>
<path d="M5972 4202 c-15 -26 -10 -66 15 -125 11 -26 19 -34 25 -25 11 18 10
40 -1 33 -6 -3 -10 3 -10 12 -1 10 -4 43 -9 73 -7 52 -8 54 -20 32z"/>
<path d="M4600 4101 c0 -6 4 -13 10 -16 6 -3 7 1 4 9 -7 18 -14 21 -14 7z"/>
<path d="M4621 4047 c2 -1 13 -9 24 -17 19 -14 19 -14 6 3 -7 9 -18 17 -24 17
-6 0 -8 -1 -6 -3z"/>
<path d="M7925 1050 c-55 -10 -131 -25 -170 -34 -83 -20 -536 -183 -650 -234
-114 -52 -340 -169 -404 -209 -30 -19 -62 -38 -71 -41 -60 -24 -403 -255 -540
-365 -9 -7 -33 -25 -55 -42 -22 -16 -41 -33 -43 -37 -2 -4 -8 -8 -13 -8 -5 0
-19 -9 -31 -19 -13 -11 -34 -29 -48 -40 l-25 -20 1973 -1 c1084 0 1972 3 1972
8 0 19 -126 253 -184 340 -102 155 -160 201 -341 272 -77 30 -113 53 -265 165
-220 162 -415 236 -720 270 -162 19 -262 18 -385 -5z"/>
</g>
</svg>
